<svg width="37" height="37" viewBox="0 0 37 37" fill="none" xmlns="http://www.w3.org/2000/svg">
<path d="M18.7876 31.0013L18.2622 30.6443C18.1466 30.5662 15.4113 28.6859 12.5879 24.8775C10.9392 22.654 9.59724 20.2187 8.59814 17.6372C7.34128 14.3681 6.63507 10.9132 6.50822 7.41306L6.48438 6.80241L11.3059 4.4639C13.6372 3.33341 16.1945 2.74609 18.7854 2.74609C21.3764 2.74609 23.9336 3.33341 26.2649 4.4639L31.0865 6.80241L31.0626 7.41306C30.9368 10.9129 30.2321 14.3677 28.9771 17.6372C27.9771 20.2188 26.6341 22.6541 24.9844 24.8775C22.161 28.6859 19.425 30.5662 19.3101 30.6443L18.7876 31.0013ZM8.40664 7.94855C8.83445 15.2474 11.7135 20.5596 14.0903 23.7639C16.0155 26.3597 17.9002 27.9994 18.7876 28.7018C19.683 27.9907 21.5995 26.3228 23.5318 23.7017C25.8877 20.5069 28.7429 15.2091 29.1686 7.94782L25.4512 6.14624C23.3758 5.13236 21.0964 4.60537 18.7865 4.60537C16.4767 4.60537 14.1973 5.13236 12.1218 6.14624L8.40664 7.94855Z" fill="#3C464D"/>
<path d="M26.8891 11.9417L25.6086 10.4473C25.5411 10.3683 25.4578 10.3044 25.364 10.2597C25.2703 10.215 25.1682 10.1905 25.0643 10.1878C24.9605 10.185 24.8573 10.2042 24.7613 10.2439C24.6653 10.2836 24.5788 10.3431 24.5072 10.4184L17.6839 17.5958C17.6084 17.6752 17.5163 17.737 17.4141 17.7766C17.312 17.8162 17.2023 17.8327 17.093 17.8249C16.9837 17.8171 16.8775 17.7851 16.782 17.7314C16.6865 17.6777 16.6041 17.6035 16.5407 17.5141L14.364 14.4522C14.3042 14.3681 14.2275 14.2973 14.1389 14.2445C14.0502 14.1916 13.9515 14.1578 13.849 14.1452C13.7465 14.1326 13.6426 14.1416 13.5437 14.1714C13.4449 14.2012 13.3534 14.2514 13.275 14.3186L12.0089 15.4069C11.9305 15.4741 11.867 15.5569 11.8225 15.65C11.778 15.7432 11.7534 15.8446 11.7503 15.9478C11.7473 16.051 11.7658 16.1537 11.8047 16.2493C11.8436 16.345 11.9021 16.4314 11.9764 16.5031L16.3636 20.7495C16.4965 20.8782 16.6727 20.9526 16.8576 20.9581C17.0425 20.9636 17.2228 20.8997 17.3631 20.7791L18.2917 19.9842L18.2801 19.9676L26.7952 13.0033C26.8724 12.9407 26.9362 12.8632 26.9828 12.7754C27.0295 12.6877 27.0581 12.5914 27.0668 12.4924C27.0756 12.3934 27.0644 12.2936 27.0339 12.199C27.0033 12.1044 26.9541 12.0169 26.8891 11.9417Z" fill="#3970B7"/>
</svg>
