<svg width="38" height="38" viewBox="0 0 38 38" fill="none" xmlns="http://www.w3.org/2000/svg">
<path d="M18.9912 32.8984C10.9904 32.8984 4.48145 26.3887 4.48145 18.3887C4.48145 10.3886 10.9904 3.87891 18.9912 3.87891C26.992 3.87891 33.501 10.3879 33.501 18.3887C33.501 26.3895 26.992 32.8984 18.9912 32.8984ZM18.9912 5.92734C12.12 5.92734 6.53211 11.5175 6.53211 18.3887C6.53211 25.2598 12.1223 30.85 18.9934 30.85C25.8646 30.85 31.4548 25.2598 31.4548 18.3887C31.4548 11.5175 25.8624 5.92734 18.9912 5.92734Z" fill="#3C464D"/>
<path d="M24.3555 16.3915C24.4156 16.4242 24.483 16.4413 24.5514 16.4413C24.6199 16.4413 24.6872 16.4242 24.7474 16.3915C25.0851 16.2075 25.7501 15.7124 25.8606 14.6348C26.0091 13.1504 25.2728 13.0109 24.5551 13.002C23.8374 13.0101 23.0997 13.1504 23.2489 14.6348C23.3543 15.7132 24.0185 16.2075 24.3555 16.3915Z" fill="#3970B7"/>
<path d="M25.7202 15.7852C25.4913 16.1559 25.166 16.4575 24.7791 16.658C24.7091 16.694 24.6315 16.7128 24.5528 16.7128C24.474 16.7128 24.3964 16.694 24.3264 16.658C23.9499 16.4632 23.6318 16.172 23.4046 15.8141C22.4464 16.1214 21.8772 16.8042 21.5439 17.5761C22.5511 18.4481 22.7314 19.9295 22.7173 20.9797H27.8681C27.8681 20.9797 28.7224 16.6387 25.7202 15.7852ZM24.5468 20.2628L24.1461 19.7855L24.3977 16.9882H24.6945L24.9461 19.7855L24.5468 20.2628Z" fill="#3970B7"/>
<path d="M18.9692 14.2637C18.2515 14.2718 17.5138 14.4121 17.663 15.8965C17.7706 16.9741 18.4348 17.4684 18.7725 17.6525C18.8325 17.6852 18.8998 17.7023 18.9681 17.7023C19.0364 17.7023 19.1036 17.6852 19.1637 17.6525C19.5013 17.4684 20.1671 16.9734 20.2769 15.8957C20.4231 14.4099 19.6869 14.2718 18.9692 14.2637Z" fill="#3970B7"/>
<path d="M20.1332 17.0449C19.9045 17.4156 19.5795 17.7172 19.1928 17.9177C19.1227 17.9537 19.0449 17.9725 18.9661 17.9725C18.8872 17.9725 18.8095 17.9537 18.7393 17.9177C18.3624 17.7222 18.0443 17.4299 17.8176 17.0709C14.9624 17.9868 15.5598 22.2365 15.5598 22.2365H22.2811C22.2811 22.2365 23.1346 17.8984 20.1332 17.0449ZM18.9605 21.524L18.559 21.0468L18.8106 18.2495H19.1075L19.3591 21.0468L18.9605 21.524Z" fill="#3970B7"/>
<path d="M13.677 16.463C13.617 16.4959 13.5498 16.5132 13.4814 16.5132C13.4131 16.5132 13.3458 16.4959 13.2859 16.463C12.9482 16.279 12.2824 15.7847 12.1726 14.707C12.0241 13.2227 12.7604 13.0831 13.4773 13.0742C14.195 13.0816 14.9335 13.2189 14.7843 14.707C14.6789 15.7839 14.0139 16.279 13.677 16.463Z" fill="#3970B7"/>
<path d="M12.3142 15.8555C12.5425 16.2263 12.8676 16.5278 13.2546 16.7275C13.3247 16.7637 13.4024 16.7826 13.4813 16.7826C13.5602 16.7826 13.638 16.7637 13.7081 16.7275C14.0846 16.5322 14.4027 16.2405 14.6299 15.8822C15.588 16.1895 16.1565 16.8723 16.4905 17.6441C15.4826 18.5162 15.303 19.9976 15.3171 21.0478H10.1671C10.1671 21.0478 9.31284 16.709 12.3142 15.8555ZM13.4869 20.3353L13.8884 19.8581L13.6361 17.06H13.3392L13.0869 19.8581L13.4869 20.3353Z" fill="#3970B7"/>
</svg>
