<svg id="Layer_1" data-name="Layer 1" xmlns="http://www.w3.org/2000/svg" viewBox="0 0 512 512"><defs><style>.cls-1{fill:#3c464d;}.cls-2{fill:#3970b7;}</style></defs><path class="cls-1" d="M256.19,509.89C115.68,509.89,1.37,395.58,1.37,255.08S115.68.27,256.19.27,511,114.58,511,255.08,396.69,509.89,256.19,509.89Zm0-473.65c-120.67,0-218.84,98.17-218.84,218.84s98.17,218.84,218.84,218.84S475,375.75,475,255.08,376.86,36.24,256.19,36.24Z"/><path class="cls-2" d="M350.42,220a7.18,7.18,0,0,0,6.88,0c5.93-3.23,17.62-11.92,19.51-30.85,2.61-26.09-10.33-28.51-22.92-28.66h0c-12.6.14-25.56,2.55-22.95,28.66C332.84,208.09,344.5,216.78,350.42,220Z"/><path class="cls-2" d="M374.37,209.34a42.18,42.18,0,0,1-16.52,15.32,8.73,8.73,0,0,1-8,0,42.18,42.18,0,0,1-16.19-14.83c-16.82,5.4-26.81,17.39-32.67,30.94,17.69,15.32,20.89,41.34,20.61,59.78h90.45S427.08,224.32,374.37,209.34Zm-20.6,78.6-7-8.37,4.43-49.14h5.25l4.42,49.14Z"/><path class="cls-2" d="M255.79,182.65h0c-12.61.14-25.57,2.55-22.95,28.66,1.89,18.92,13.56,27.61,19.48,30.85a7.16,7.16,0,0,0,6.87,0c5.93-3.23,17.62-11.92,19.52-30.84C281.32,185.22,268.38,182.79,255.79,182.65Z"/><path class="cls-2" d="M276.27,231.47a42.17,42.17,0,0,1-16.52,15.32,8.73,8.73,0,0,1-8,0A42.11,42.11,0,0,1,235.6,232C185.46,248.05,196,322.68,196,322.68H314S329,246.46,276.27,231.47Zm-20.6,78.6-7-8.37,4.43-49.14h5.24l4.43,49.14Z"/><path class="cls-2" d="M162.9,221.28a7.16,7.16,0,0,1-6.87,0c-5.93-3.23-17.62-11.92-19.51-30.85-2.62-26.09,10.32-28.51,22.92-28.66h0c12.6.14,25.56,2.55,22.94,28.66C180.49,209.35,168.82,218,162.9,221.28Z"/><path class="cls-2" d="M139,210.6a42.24,42.24,0,0,0,16.52,15.32,8.73,8.73,0,0,0,8,0,42.11,42.11,0,0,0,16.19-14.83c16.83,5.4,26.82,17.39,32.68,30.94-17.7,15.32-20.9,41.34-20.61,59.78H101.23S86.24,225.58,139,210.6Zm20.6,78.6,7-8.37-4.43-49.14h-5.24l-4.43,49.14Z"/></svg>