<svg width="37" height="37" viewBox="0 0 37 37" fill="none" xmlns="http://www.w3.org/2000/svg">
<path d="M18.4985 30.7845L17.9732 30.4275C17.8575 30.3494 15.1223 28.4691 12.2989 24.6607C10.6502 22.4372 9.30818 20.0019 8.30908 17.4204C7.05222 14.1513 6.34601 10.6964 6.21916 7.19626L6.19531 6.58562L11.0169 4.2471C13.3482 3.11661 15.9054 2.5293 18.4964 2.5293C21.0873 2.5293 23.6446 3.11661 25.9759 4.2471L30.7974 6.58562L30.7736 7.19626C30.6478 10.6961 29.943 14.1509 28.688 17.4204C27.688 20.002 26.345 22.4373 24.6953 24.6607C21.8719 28.4691 19.1359 30.3494 19.021 30.4275L18.4985 30.7845ZM8.11758 7.73175C8.54539 15.0306 11.4245 20.3428 13.8013 23.5471C15.7264 26.1429 17.6111 27.7826 18.4985 28.485C19.3939 27.7739 21.3104 26.106 23.2428 23.4849C25.5986 20.2901 28.4538 14.9923 28.8795 7.73103L25.1621 5.92945C23.0867 4.91557 20.8073 4.38857 18.4975 4.38857C16.1876 4.38857 13.9082 4.91557 11.8328 5.92945L8.11758 7.73175Z" fill="#3C464D"/>
<path d="M21.669 8.6878L19.501 11.358C19.4125 11.4625 19.3027 11.5468 19.1789 11.6053C19.0551 11.6637 18.9202 11.6951 18.7833 11.6971C18.6464 11.6992 18.5106 11.6719 18.3851 11.6172C18.2596 11.5624 18.1473 11.4814 18.0557 11.3797L15.7237 8.8345C15.6366 8.73743 15.5306 8.65913 15.4123 8.60435C15.2939 8.54957 15.1657 8.51948 15.0353 8.51589C14.9049 8.51231 14.7752 8.53531 14.654 8.5835C14.5328 8.6317 14.4227 8.70406 14.3304 8.7962L13.3086 9.81803C13.2157 9.91097 13.143 10.022 13.0948 10.1442C13.0466 10.2664 13.024 10.3972 13.0284 10.5285C13.0328 10.6598 13.0641 10.7888 13.1204 10.9075C13.1766 11.0262 13.2567 11.132 13.3555 11.2185L15.9846 13.578C16.0901 13.6704 16.1741 13.7848 16.2307 13.9131C16.2872 14.0415 16.3149 14.1807 16.3118 14.3209C16.3087 14.4611 16.2749 14.599 16.2127 14.7247C16.1506 14.8504 16.0616 14.961 15.9521 15.0486L13.3736 17.2166C13.2682 17.3009 13.1818 17.4065 13.12 17.5266C13.0582 17.6466 13.0225 17.7783 13.0151 17.9131C13.0077 18.0479 13.0289 18.1827 13.0772 18.3088C13.1256 18.4348 13.2 18.5492 13.2956 18.6446L14.235 19.584C14.3307 19.6797 14.4456 19.7541 14.5721 19.8023C14.6985 19.8505 14.8338 19.8714 14.9689 19.8636C15.1041 19.8559 15.236 19.8196 15.3561 19.7572C15.4762 19.6948 15.5818 19.6077 15.6659 19.5016L17.7204 17.0446C17.8057 16.9373 17.9131 16.8495 18.0352 16.7872C18.1573 16.7249 18.2914 16.6895 18.4284 16.6834C18.5654 16.6773 18.7021 16.7006 18.8293 16.7518C18.9565 16.8031 19.0712 16.881 19.1657 16.9803L21.1848 19.1099C21.273 19.2026 21.3788 19.2768 21.4961 19.328C21.6133 19.3792 21.7396 19.4064 21.8675 19.4081C21.9955 19.4098 22.1224 19.3859 22.241 19.3378C22.3595 19.2897 22.4673 19.2184 22.5579 19.128L23.5826 18.1033C23.6767 18.0091 23.7503 17.8963 23.7985 17.7722C23.8466 17.648 23.8684 17.5152 23.8625 17.3822C23.8565 17.2491 23.8228 17.1188 23.7637 16.9994C23.7046 16.8801 23.6212 16.7744 23.519 16.689L21.2332 14.7798C21.1218 14.6867 21.033 14.5695 20.9734 14.4371C20.9139 14.3047 20.8851 14.1605 20.8894 14.0154C20.8936 13.8702 20.9307 13.728 20.9979 13.5993C21.0651 13.4705 21.1607 13.3588 21.2773 13.2723L23.9042 11.0133C24.015 10.9311 24.1068 10.8261 24.1733 10.7052C24.2399 10.5843 24.2796 10.4506 24.2897 10.313C24.2999 10.1754 24.2802 10.0372 24.2322 9.90793C24.1841 9.77862 24.1087 9.66119 24.0111 9.56366L23.0717 8.6242C22.9776 8.53192 22.8656 8.45999 22.7426 8.41292C22.6195 8.36584 22.4881 8.34463 22.3565 8.35059C22.2249 8.35656 22.0959 8.38958 21.9776 8.4476C21.8593 8.50561 21.7543 8.58738 21.669 8.6878Z" fill="#3970B7"/>
</svg>
