<svg id="Layer_1" data-name="Layer 1" xmlns="http://www.w3.org/2000/svg" viewBox="0 0 512 512"><defs><style>.cls-1{fill:#3c464d;}.cls-2{fill:#3970b7;}</style></defs><path class="cls-1" d="M256.67,512l-9.52-6.47C245.07,504.11,195.49,470,144.33,401A559.23,559.23,0,0,1,72,269.85C49.43,211.57,36.72,149.24,34.18,84.58l-.43-11.07,87.37-42.37,7.39,15.24-7.39-15.24a310.61,310.61,0,0,1,271.11,0L479.6,73.51l-.43,11.07c-2.54,64.66-15.26,127-37.81,185.27A558.83,558.83,0,0,1,369,401c-51.17,69-100.74,103.08-102.83,104.5ZM68.58,94.28c7.75,132.19,59.92,228.51,103,286.57,34.88,47,69,76.75,85.11,89.48,16.23-12.89,50.95-43.11,86-90.6,42.68-57.89,94.42-153.88,102.14-285.45L377.44,61.62a275.18,275.18,0,0,0-241.53,0Z"/><path class="cls-2" d="M257,301.31h0a24.37,24.37,0,0,1-24.25-22l-11.87-174a24.37,24.37,0,0,1,24.26-26.7H269A24.36,24.36,0,0,1,293.16,106l-12,174A24.36,24.36,0,0,1,257,301.31Z"/><circle class="cls-2" cx="257.56" cy="351.33" r="31.82"/></svg>