<svg id="Layer_1" data-name="Layer 1" xmlns="http://www.w3.org/2000/svg" viewBox="0 0 512 512"><defs><style>.cls-1{fill:#3c464d;}.cls-2{fill:#3970b7;}</style></defs><path class="cls-1" d="M255.8,511l-9.48-6.44c-2.08-1.42-51.46-35.36-102.42-104.09A557.17,557.17,0,0,1,71.83,269.79C49.37,211.74,36.7,149.66,34.18,85.25l-.43-11,87-42.21,7.36,15.19L120.78,32a309.47,309.47,0,0,1,270,0l87,42.21-.43,11c-2.53,64.41-15.2,126.49-37.66,184.54a557.13,557.13,0,0,1-72.06,130.68c-51,68.73-100.35,102.67-102.42,104.09ZM68.44,94.91C76.16,226.58,128.13,322.53,171,380.36c34.75,46.87,68.77,76.45,84.78,89.13,16.17-12.83,50.75-42.94,85.63-90.24C383.94,321.58,435.47,226,443.16,94.91L376.1,62.38a274.15,274.15,0,0,0-240.59,0Z"/><path class="cls-2" d="M402.06,167,379,140a13.4,13.4,0,0,0-19.89-.51L235.91,269.05a13.39,13.39,0,0,1-20.63-1.48L176,212.26a13.39,13.39,0,0,0-19.65-2.4l-22.86,19.63a13.4,13.4,0,0,0-.59,19.79l79.19,76.64a13.38,13.38,0,0,0,18,.54l16.76-14.39-.21-.3L400.36,186.08A13.39,13.39,0,0,0,402.06,167Z"/></svg>